<?xml version="1.0" encoding="UTF-8"?>
<svg width="24px" height="24px" viewBox="0 0 24 24" version="1.1" xmlns="http://www.w3.org/2000/svg" xmlns:xlink="http://www.w3.org/1999/xlink">
    <!-- Generator: Sketch 52.5 (67469) - http://www.bohemiancoding.com/sketch -->
    <title>Icon/Social/Instagram/Silver</title>
    <desc>Created with Sketch.</desc>
    <defs>
        <polygon id="path-1" points="0 0 21.9999804 0 21.9999804 21.9999902 0 21.9999902"></polygon>
    </defs>
    <g id="Icon/Social/Instagram/Silver" stroke="none" stroke-width="1" fill="none" fill-rule="evenodd">
        <g id="Page-1" transform="translate(1.000000, 1.000000)">
            <g id="Group-3">
                <mask id="mask-2" fill="white">
                    <use xlink:href="#path-1"></use>
                </mask>
                <g id="Clip-2"></g>
                <path d="M11.0201227,2.05967911 C11.0202204,2.05919022 11.0202204,2.05870133 11.0203182,2.05811467 C9.47357156,2.05811467 7.924576,2.00942133 6.381056,2.07982133 C5.66502933,2.11247911 4.91047822,2.26706578 4.25927822,2.55844356 C2.71898489,3.24758133 2.10904711,4.61901244 2.08186489,6.20545689 C2.02740267,9.39565244 2.03874489,12.5877058 2.08646044,15.7780969 C2.09643378,16.4413236 2.28191822,17.1466924 2.56087822,17.7524258 C3.27602489,19.3052347 4.662416,19.8979636 6.26616711,19.9227991 C9.42399822,19.971688 12.5842738,19.9879191 15.7414204,19.9208436 C18.3004604,19.8666747 19.8593316,18.3235458 19.9181938,15.7697858 C19.991136,12.5966036 19.9621938,9.42009689 19.9151627,6.24593689 C19.9052871,5.58212356 19.7250827,4.87646133 19.4487627,4.26955467 C18.721296,2.67225689 17.3005849,2.11903022 15.6600693,2.06965244 C14.1146916,2.023208 12.5668693,2.05967911 11.0201227,2.05967911 M21.9999804,7.03999022 L21.9999804,14.9599902 C21.9692782,15.2651547 21.9257671,15.5697324 21.9100249,15.8756791 C21.737056,19.2234924 19.7672249,21.3847724 16.4548071,21.8446213 C15.958976,21.9135547 15.4584516,21.9491458 14.9599804,21.9999902 L7.03998044,21.9999902 C6.73579378,21.9693858 6.43219378,21.9249947 6.12712711,21.9102302 C2.793296,21.7486036 0.610993778,19.7627369 0.152709333,16.4580436 C0.083776,15.9612347 0.0500426667,15.4594391 -1.95555556e-05,14.9599902 L-1.95555556e-05,7.03999022 C0.0306826667,6.73482578 0.074976,6.43034578 0.089936,6.12439911 C0.252540444,2.78998133 2.23918933,0.608754667 5.54476267,0.152230222 C6.04078933,0.083688 6.54150933,0.0498568889 7.03998044,-9.77777778e-06 L14.9599804,-9.77777778e-06 C15.2641671,0.0306924444 15.5677671,0.0749857778 15.872736,0.089848 C19.2083271,0.251376889 21.3934649,2.24135022 21.8441227,5.54223022 C21.9119804,6.03933244 21.9487449,6.54063911 21.9999804,7.03999022" id="Fill-1" fill="#FFFFFF" mask="url(#mask-2)"></path>
            </g>
            <path d="M14.9085548,11.2168894 C14.9132023,9.16286974 13.2656022,7.50339747 11.2170287,7.49874992 C9.16311554,7.49420125 7.50345163,9.14200521 7.49890298,11.1904874 C7.49435433,13.2446059 9.14195443,14.9039793 11.1906268,14.908528 C13.2444411,14.9130766 14.9040061,13.2652727 14.9085548,11.2168894 M16.9073898,11.2318209 C16.8997757,14.4021427 14.3526307,16.9185442 11.1628405,16.9073703 C7.99638684,16.8961964 5.48493879,14.3429112 5.500068,11.1504393 C5.51499943,8.00721175 8.05749696,5.49535889 11.2196986,5.50000644 C14.3935685,5.50455511 16.9151027,8.04567765 16.9073898,11.2318209" id="Fill-4" fill="#FFFFFF"></path>
            <path d="M17.9257923,5.27109239 C17.9358191,5.94896013 17.380101,6.51743318 16.7062297,6.51851719 C16.0593673,6.51951086 15.4942548,5.96422661 15.4816988,5.31517548 C15.4687814,4.64552814 16.0335326,4.07398374 16.7078556,4.07407407 C17.3665514,4.07407407 17.9161269,4.61418218 17.9257923,5.27109239" id="Fill-6" fill="#FFFFFF"></path>
        </g>
    </g>
</svg>